<svg version="1.1" xmlns="http://www.w3.org/2000/svg" xmlns:xlink="http://www.w3.org/1999/xlink" x="0px" y="0px" viewBox="0 0 380 64" style="enable-background:new 0 0 380 64;" xml:space="preserve">
<path fill="#8c969a" d="M29.88,13.27c-3.22-3.18-7.17-4.77-11.85-4.77c-4.68,0-8.63,1.59-11.85,4.77C2.96,16.4,1.33,20.3,1.33,24.93  s1.63,8.53,4.86,11.67c3.22,3.13,7.17,4.73,11.85,4.73c4.67,0,8.67-1.59,11.89-4.73c3.22-3.13,4.86-7.04,4.86-11.67  S33.15,16.4,29.88,13.27z M25.94,32.97c-2.14,2.13-4.77,3.22-7.9,3.22c-3.14,0-5.82-1.09-7.95-3.22s-3.18-4.81-3.18-8.04  c0-3.18,1.05-5.86,3.18-8.04c2.13-2.18,4.81-3.26,7.95-3.26c3.13,0,5.76,1.08,7.9,3.26c2.13,2.18,3.22,4.86,3.22,8.04  C29.16,28.11,28.07,30.79,25.94,32.97z M67.47,11.9c-2.09-1.9-4.49-2.86-7.17-2.86H48.22v31.64h5.68V29.61h6.4  c2.72,0,5.13-0.95,7.17-2.9c2.09-1.95,3.13-4.41,3.13-7.35C70.6,16.31,69.56,13.81,67.47,11.9z M60.02,24.48H53.9V14.17h6.13  c2.54,0,4.95,1.86,4.95,5.18C64.97,22.61,62.56,24.48,60.02,24.48z M89.53,35.55v-8.72h13.57v-5.13H89.53v-7.54h14.48V9.04H83.85  v31.64h20.48v-5.13H89.53z M139.83,9.04v19.97L118.26,7.86v32.82h5.67V20.8l21.57,21.07V9.04H139.83z"/>
<path fill="#144575" d="M158.07,9.04v5.13h10.38v26.52h5.68V14.17h10.38V9.04H158.07z M256.19,28.06c3.45-1.45,5.77-4.86,5.77-8.99  c0-2.86-1-5.22-2.99-7.13c-2-1.95-4.41-2.9-7.26-2.9h-12.31v31.64h5.68V29.43h5.63l6.76,11.26h6.4L256.19,28.06z M251.11,24.34  h-6.04V14.17h6.49c2.72,0,4.77,2.09,4.77,4.99C256.33,22.21,254.2,24.34,251.11,24.34z M282.11,35.55v-8.72h13.58v-5.13h-13.58  v-7.54h14.48V9.04h-20.16v31.64h20.48v-5.13H282.11z M323.69,7.5l-15.66,33.19h5.99l2.81-6.13h13.62l2.81,6.13h6.04L323.69,7.5z   M318.97,29.65l4.68-10.3l4.68,10.3H318.97z M374.2,13.44c-2.9-2.95-6.99-4.4-12.21-4.4h-11.31v31.64h11.35  c5.22,0,9.31-1.46,12.21-4.32c2.91-2.86,4.36-6.67,4.36-11.44S377.15,16.35,374.2,13.44z M361.62,35.55h-5.26V14.17h5.22  c7.95,0,11.35,4.09,11.35,10.76C372.93,31.42,369.48,35.55,361.62,35.55z M231.41,21.78v5.13c-2.81-1.24-5.62-1.58-8.43-1.46v15.24  h-5.63v-14.5c-5.07,0.99-10.13,2.55-15.21,2.14v12.37h-5.68V9.04h5.68v14.15c5.07,0.41,10.14-1.15,15.21-2.14V9.04h5.63v11.28  C225.8,20.2,228.61,20.54,231.41,21.78z"/>
<path fill="#8e979c" d="M263.2,53.4h1.46v1.03h0.08c0.08-0.18,0.2-0.34,0.34-0.49c0.14-0.15,0.31-0.28,0.49-0.39  c0.18-0.11,0.37-0.2,0.57-0.26c0.2-0.07,0.39-0.1,0.58-0.1c0.22,0,0.41,0.02,0.57,0.06c0.16,0.04,0.3,0.1,0.43,0.17l-0.45,1.41  c-0.1-0.05-0.22-0.08-0.34-0.1c-0.13-0.02-0.28-0.03-0.45-0.03c-0.25,0-0.48,0.05-0.69,0.15c-0.21,0.1-0.39,0.24-0.55,0.42  c-0.16,0.18-0.28,0.39-0.37,0.63c-0.09,0.24-0.13,0.5-0.13,0.77v3.57h-1.55V53.4z M274.43,58.59c-0.29,0.53-0.7,0.97-1.22,1.32  s-1.18,0.53-1.95,0.53c-0.51,0-0.98-0.09-1.41-0.27c-0.43-0.18-0.8-0.43-1.12-0.76c-0.32-0.32-0.56-0.71-0.74-1.15  c-0.18-0.44-0.26-0.93-0.26-1.45c0-0.49,0.08-0.96,0.25-1.4c0.17-0.44,0.4-0.83,0.7-1.15c0.3-0.33,0.67-0.59,1.09-0.79  c0.43-0.19,0.9-0.29,1.42-0.29c0.53,0,1,0.09,1.41,0.26c0.41,0.18,0.76,0.42,1.05,0.74c0.29,0.32,0.51,0.7,0.66,1.14  c0.15,0.45,0.23,0.93,0.23,1.46c0,0.05,0,0.09,0,0.13c-0.01,0.05-0.01,0.09-0.01,0.13c-0.01,0.04-0.01,0.07-0.01,0.11h-5.25  c0.03,0.33,0.11,0.61,0.24,0.85c0.13,0.24,0.29,0.44,0.48,0.6c0.19,0.16,0.4,0.27,0.63,0.35c0.23,0.07,0.46,0.11,0.68,0.11  c0.45,0,0.81-0.11,1.1-0.32c0.29-0.21,0.52-0.48,0.71-0.79L274.43,58.59z M273,55.96c-0.02-0.14-0.06-0.29-0.13-0.47  c-0.07-0.17-0.18-0.33-0.32-0.47c-0.14-0.14-0.33-0.27-0.56-0.37c-0.23-0.1-0.5-0.15-0.83-0.15c-0.45,0-0.83,0.13-1.15,0.4  c-0.32,0.26-0.54,0.62-0.65,1.06H273z M275.53,60.22v-9.96h1.55v9.96H275.53z M284.78,58.59c-0.29,0.53-0.7,0.97-1.22,1.32  c-0.53,0.35-1.18,0.53-1.95,0.53c-0.51,0-0.98-0.09-1.41-0.27c-0.43-0.18-0.8-0.43-1.12-0.76c-0.32-0.32-0.56-0.71-0.74-1.15  c-0.18-0.44-0.26-0.93-0.26-1.45c0-0.49,0.08-0.96,0.25-1.4c0.17-0.44,0.4-0.83,0.7-1.15c0.3-0.33,0.67-0.59,1.09-0.79  c0.43-0.19,0.9-0.29,1.42-0.29c0.53,0,1,0.09,1.41,0.26c0.41,0.18,0.76,0.42,1.05,0.74c0.29,0.32,0.51,0.7,0.66,1.14  c0.15,0.45,0.23,0.93,0.23,1.46c0,0.05,0,0.09,0,0.13c-0.01,0.05-0.01,0.09-0.01,0.13c-0.01,0.04-0.01,0.07-0.01,0.11h-5.25  c0.03,0.33,0.11,0.61,0.24,0.85c0.13,0.24,0.29,0.44,0.48,0.6c0.19,0.16,0.4,0.27,0.63,0.35c0.23,0.07,0.46,0.11,0.68,0.11  c0.45,0,0.81-0.11,1.1-0.32c0.29-0.21,0.52-0.48,0.71-0.79L284.78,58.59z M283.35,55.96c-0.02-0.14-0.06-0.29-0.13-0.47  c-0.07-0.17-0.18-0.33-0.32-0.47c-0.14-0.14-0.33-0.27-0.56-0.37c-0.23-0.1-0.5-0.15-0.83-0.15c-0.45,0-0.83,0.13-1.15,0.4  c-0.32,0.26-0.54,0.62-0.65,1.06H283.35z M290.13,59.39h-0.08c-0.2,0.27-0.47,0.51-0.79,0.73c-0.33,0.22-0.74,0.33-1.24,0.33  c-0.36,0-0.7-0.06-1.02-0.17c-0.32-0.12-0.59-0.28-0.82-0.49c-0.23-0.21-0.42-0.45-0.55-0.74c-0.13-0.28-0.2-0.6-0.2-0.94  c0-0.36,0.07-0.69,0.22-0.97c0.14-0.29,0.34-0.53,0.6-0.72c0.25-0.19,0.56-0.35,0.91-0.45c0.35-0.11,0.73-0.16,1.14-0.16  c0.45,0,0.84,0.04,1.14,0.13c0.31,0.09,0.54,0.17,0.7,0.24v-0.26c0-0.2-0.04-0.39-0.13-0.57c-0.09-0.18-0.21-0.33-0.36-0.45  c-0.15-0.13-0.33-0.22-0.52-0.29c-0.19-0.07-0.4-0.1-0.61-0.1c-0.34,0-0.65,0.07-0.93,0.2c-0.27,0.13-0.52,0.35-0.73,0.65  l-1.22-0.81c0.32-0.45,0.73-0.78,1.21-1.01c0.48-0.23,1.03-0.34,1.64-0.34c1.01,0,1.79,0.25,2.35,0.75c0.55,0.5,0.83,1.22,0.83,2.14  v4.15h-1.52V59.39z M290.13,57.38c-0.2-0.12-0.43-0.22-0.68-0.29c-0.25-0.07-0.54-0.11-0.86-0.11c-0.48,0-0.87,0.11-1.15,0.33  c-0.29,0.22-0.43,0.49-0.43,0.81c0,0.17,0.04,0.31,0.11,0.44c0.07,0.13,0.17,0.23,0.29,0.33c0.12,0.09,0.25,0.16,0.4,0.21  c0.15,0.05,0.31,0.07,0.47,0.07c0.25,0,0.49-0.05,0.72-0.15c0.23-0.1,0.42-0.23,0.59-0.39c0.17-0.16,0.3-0.35,0.4-0.56  C290.08,57.85,290.13,57.63,290.13,57.38z M295.48,60.45c-0.42,0-0.79-0.06-1.13-0.17c-0.33-0.11-0.63-0.26-0.88-0.44  c-0.25-0.18-0.46-0.39-0.63-0.62c-0.17-0.23-0.3-0.47-0.4-0.72l1.39-0.58c0.16,0.4,0.38,0.69,0.68,0.88  c0.3,0.19,0.62,0.29,0.96,0.29c0.39,0,0.7-0.08,0.92-0.24c0.22-0.16,0.33-0.33,0.33-0.53c0-0.19-0.08-0.36-0.25-0.51  c-0.17-0.14-0.48-0.27-0.95-0.38l-0.97-0.24c-0.21-0.05-0.43-0.12-0.65-0.22c-0.22-0.1-0.42-0.22-0.61-0.38  c-0.19-0.15-0.34-0.34-0.45-0.56c-0.12-0.22-0.17-0.48-0.17-0.77c0-0.33,0.07-0.63,0.22-0.89c0.14-0.26,0.34-0.48,0.59-0.65  c0.25-0.18,0.54-0.31,0.87-0.4c0.33-0.09,0.68-0.14,1.05-0.14c0.31,0,0.6,0.03,0.88,0.1c0.28,0.06,0.55,0.16,0.79,0.29  c0.24,0.13,0.46,0.29,0.65,0.49c0.19,0.2,0.34,0.43,0.45,0.7l-1.36,0.57c-0.13-0.3-0.33-0.51-0.61-0.65  c-0.28-0.13-0.56-0.2-0.85-0.2c-0.13,0-0.26,0.02-0.4,0.05c-0.13,0.03-0.26,0.08-0.36,0.14c-0.11,0.06-0.19,0.14-0.26,0.23  c-0.07,0.09-0.1,0.19-0.1,0.31c0,0.19,0.08,0.33,0.24,0.44c0.16,0.11,0.41,0.2,0.74,0.29l1.04,0.26c0.7,0.18,1.22,0.44,1.55,0.8  c0.33,0.36,0.49,0.78,0.49,1.26c0,0.3-0.07,0.58-0.2,0.83c-0.13,0.26-0.33,0.49-0.58,0.7c-0.25,0.2-0.55,0.36-0.9,0.48  C296.28,60.39,295.9,60.45,295.48,60.45z M305.53,58.59c-0.29,0.53-0.7,0.97-1.22,1.32c-0.53,0.35-1.18,0.53-1.95,0.53  c-0.51,0-0.98-0.09-1.41-0.27c-0.43-0.18-0.8-0.43-1.12-0.76c-0.32-0.32-0.56-0.71-0.74-1.15c-0.18-0.44-0.26-0.93-0.26-1.45  c0-0.49,0.08-0.96,0.25-1.4c0.17-0.44,0.4-0.83,0.7-1.15c0.3-0.33,0.67-0.59,1.09-0.79c0.43-0.19,0.9-0.29,1.42-0.29  c0.53,0,1,0.09,1.41,0.26c0.41,0.18,0.76,0.42,1.05,0.74c0.29,0.32,0.51,0.7,0.66,1.14c0.15,0.45,0.23,0.93,0.23,1.46  c0,0.05,0,0.09,0,0.13c-0.01,0.05-0.01,0.09-0.01,0.13c-0.01,0.04-0.01,0.07-0.01,0.11h-5.25c0.03,0.33,0.11,0.61,0.24,0.85  c0.13,0.24,0.29,0.44,0.48,0.6c0.19,0.16,0.4,0.27,0.63,0.35c0.23,0.07,0.46,0.11,0.68,0.11c0.45,0,0.81-0.11,1.1-0.32  c0.29-0.21,0.52-0.48,0.71-0.79L305.53,58.59z M304.1,55.96c-0.02-0.14-0.06-0.29-0.13-0.47c-0.07-0.17-0.18-0.33-0.32-0.47  c-0.14-0.14-0.33-0.27-0.56-0.37c-0.23-0.1-0.5-0.15-0.83-0.15c-0.45,0-0.83,0.13-1.15,0.4c-0.32,0.26-0.54,0.62-0.65,1.06H304.1z   M311.79,59.35h-0.08c-0.19,0.3-0.47,0.55-0.85,0.77c-0.38,0.22-0.84,0.33-1.36,0.33c-0.44,0-0.85-0.09-1.25-0.27  s-0.74-0.43-1.04-0.76c-0.3-0.32-0.53-0.71-0.71-1.15c-0.18-0.44-0.26-0.93-0.26-1.45c0-0.53,0.09-1.01,0.26-1.45  c0.18-0.44,0.41-0.82,0.71-1.15c0.3-0.32,0.64-0.58,1.04-0.76c0.39-0.18,0.81-0.27,1.25-0.27c0.53,0,0.98,0.11,1.36,0.33  c0.38,0.22,0.66,0.48,0.85,0.77h0.08l-0.08-0.95v-3.08h1.54v9.96h-1.46V59.35z M309.78,59.01c0.26,0,0.51-0.05,0.76-0.15  c0.25-0.1,0.46-0.25,0.64-0.43c0.18-0.19,0.33-0.42,0.44-0.69c0.11-0.27,0.17-0.58,0.17-0.93c0-0.34-0.06-0.65-0.17-0.93  c-0.11-0.27-0.26-0.5-0.44-0.69c-0.18-0.19-0.39-0.33-0.64-0.43c-0.25-0.1-0.5-0.15-0.76-0.15c-0.27,0-0.52,0.05-0.77,0.15  c-0.24,0.1-0.45,0.25-0.63,0.44c-0.18,0.19-0.33,0.42-0.44,0.69c-0.11,0.27-0.17,0.58-0.17,0.92c0,0.34,0.06,0.65,0.17,0.92  c0.11,0.27,0.26,0.5,0.44,0.69c0.18,0.19,0.39,0.34,0.63,0.44C309.26,58.96,309.51,59.01,309.78,59.01z M318.37,50.26h1.54v3.07  l-0.08,0.95h0.08c0.19-0.3,0.47-0.55,0.85-0.77c0.38-0.22,0.83-0.33,1.36-0.33c0.44,0,0.85,0.09,1.24,0.27  c0.39,0.18,0.74,0.43,1.04,0.76c0.3,0.32,0.53,0.71,0.71,1.15c0.18,0.44,0.26,0.92,0.26,1.45c0,0.53-0.09,1.01-0.26,1.45  c-0.18,0.44-0.41,0.82-0.71,1.15c-0.3,0.32-0.64,0.58-1.04,0.76c-0.39,0.18-0.81,0.27-1.24,0.27c-0.53,0-0.98-0.11-1.36-0.33  c-0.38-0.22-0.66-0.47-0.85-0.77h-0.08v0.88h-1.46V50.26z M321.84,59c0.26,0,0.51-0.05,0.76-0.15c0.25-0.1,0.46-0.25,0.64-0.44  c0.18-0.19,0.33-0.42,0.44-0.69c0.11-0.27,0.17-0.57,0.17-0.92c0-0.34-0.06-0.65-0.17-0.92c-0.11-0.27-0.26-0.5-0.44-0.69  c-0.18-0.19-0.39-0.34-0.64-0.44c-0.25-0.1-0.5-0.15-0.76-0.15c-0.27,0-0.52,0.05-0.76,0.15c-0.24,0.1-0.45,0.25-0.63,0.43  c-0.18,0.19-0.33,0.41-0.44,0.69c-0.11,0.27-0.17,0.58-0.17,0.92c0,0.34,0.06,0.65,0.17,0.92c0.11,0.27,0.26,0.5,0.44,0.69  c0.18,0.19,0.39,0.33,0.63,0.43C321.31,58.95,321.57,59,321.84,59z M328.22,59.82l-2.84-6.42h1.72l1.88,4.52h0.07l1.82-4.52h1.71  l-4.27,9.82h-1.64L328.22,59.82z M353.48,56.91c0,1.96-1.54,3.41-3.43,3.41c-1.89,0-3.43-1.45-3.43-3.41c0-1.98,1.54-3.41,3.43-3.41  C351.95,53.5,353.48,54.93,353.48,56.91z M351.98,56.91c0-1.23-0.89-2.07-1.93-2.07c-1.03,0-1.93,0.84-1.93,2.07  c0,1.22,0.89,2.07,1.93,2.07C351.09,58.98,351.98,58.13,351.98,56.91z M361.02,56.91c0,1.96-1.54,3.41-3.43,3.41  c-1.89,0-3.43-1.45-3.43-3.41c0-1.98,1.54-3.41,3.43-3.41C359.49,53.5,361.02,54.93,361.02,56.91z M359.52,56.91  c0-1.23-0.89-2.07-1.93-2.07c-1.03,0-1.93,0.84-1.93,2.07c0,1.22,0.89,2.07,1.93,2.07C358.63,58.98,359.52,58.13,359.52,56.91z   M368.25,53.71v6.13c0,2.52-1.49,3.55-3.24,3.55c-1.65,0-2.65-1.11-3.02-2.02l1.31-0.54c0.23,0.56,0.8,1.22,1.72,1.22  c1.12,0,1.82-0.7,1.82-2v-0.49h-0.05c-0.34,0.41-0.98,0.78-1.8,0.78c-1.71,0-3.27-1.49-3.27-3.4c0-1.93,1.56-3.43,3.27-3.43  c0.81,0,1.46,0.36,1.8,0.76h0.05v-0.56H368.25z M366.93,56.92c0-1.2-0.8-2.08-1.82-2.08c-1.03,0-1.9,0.88-1.9,2.08  c0,1.19,0.87,2.06,1.9,2.06C366.13,58.98,366.93,58.11,366.93,56.92z M370.93,50.15v9.96h-1.48v-9.96H370.93z M376.78,58.04  l1.16,0.78c-0.38,0.56-1.28,1.51-2.84,1.51c-1.94,0-3.39-1.5-3.39-3.41c0-2.03,1.46-3.41,3.22-3.41c1.77,0,2.64,1.41,2.92,2.17  l0.16,0.39l-4.56,1.89c0.35,0.69,0.89,1.03,1.65,1.03S376.39,58.6,376.78,58.04z M373.2,56.81l3.05-1.27  c-0.17-0.43-0.67-0.72-1.27-0.72C374.22,54.82,373.16,55.49,373.2,56.81z M341,54.53v1.45h3.47c-0.1,0.81-0.38,1.43-0.8,1.84  c-0.5,0.5-1.29,1.06-2.68,1.06c-2.13,0-3.8-1.72-3.8-3.85c0-2.13,1.67-3.85,3.8-3.85c1.15,0,1.99,0.45,2.61,1.03l1.02-1.02  c-0.87-0.83-2.02-1.46-3.63-1.46c-2.92,0-5.38,2.38-5.38,5.3c0,2.92,2.46,5.3,5.38,5.3c1.58,0,2.77-0.52,3.7-1.49  c0.96-0.96,1.25-2.3,1.25-3.39c0-0.29-0.02-0.61-0.07-0.92L341,54.53z"/>
</svg>